<?xml version="1.0" encoding="utf-8"?>
<!-- Generator: Adobe Illustrator 28.0.0, SVG Export Plug-In . SVG Version: 6.00 Build 0)  -->
<svg version="1.1" id="Layer_1" xmlns="http://www.w3.org/2000/svg" xmlns:xlink="http://www.w3.org/1999/xlink" x="0px" y="0px"
	 viewBox="0 0 612 792" style="enable-background:new 0 0 612 792;" xml:space="preserve">
<style type="text/css">
	.st0{fill:#FFFFFF;stroke:#000000;stroke-width:0.5;stroke-miterlimit:10;}
	.st1{fill:#FFFFFF;stroke:#6D6E71;stroke-width:0.25;stroke-miterlimit:10;}
	.st2{fill:#FFFFFF;stroke:#000000;stroke-width:0.25;stroke-miterlimit:10;}
	.st3{fill:#FFFFFF;}
	.st4{fill:none;stroke:#000000;stroke-width:0.5;stroke-miterlimit:10;}
	.st5{fill:none;stroke:#939598;stroke-width:0.5;stroke-miterlimit:10;}
	.st6{fill:none;stroke:#939598;stroke-width:0.5;stroke-miterlimit:10;stroke-dasharray:3.003,3.003;}
	.st7{fill:none;stroke:#939598;stroke-width:0.5;stroke-miterlimit:10;stroke-dasharray:2.8278,2.8278;}
	.st8{fill:#6D6E71;}
	.st9{font-family:'Calibri';}
	.st10{font-size:16.1152px;}
	.st11{font-size:14.3246px;}
</style>
<polyline class="st0" points="315.58,506.63 315.58,546.17 315.58,572.11 "/>
<rect x="111.36" y="81.92" class="st1" width="98.47" height="237.38"/>
<rect x="226.21" y="81.92" class="st1" width="133.36" height="237.38"/>
<rect x="234.79" y="107.33" class="st2" width="116.93" height="58.66"/>
<rect x="234.79" y="255.01" class="st2" width="116.93" height="58.66"/>
<rect x="234.79" y="181.17" class="st2" width="116.93" height="58.66"/>
<rect x="119.21" y="102.38" class="st2" width="79.41" height="58.66"/>
<rect x="432.89" y="55.91" class="st2" width="101.9" height="274.21"/>
<g>
	<line class="st3" x1="359.65" y1="193.02" x2="406.04" y2="193.02"/>
	<g>
		<line class="st4" x1="359.65" y1="193.02" x2="405.46" y2="193.02"/>
		<g>
			<polygon points="404.47,193.87 405.32,193.02 404.47,192.17 405.19,192.17 406.04,193.02 405.19,193.87 			"/>
		</g>
	</g>
</g>
<g>
	<rect x="96.36" y="348.38" class="st3" width="438.44" height="34.11"/>
	<g>
		<polyline class="st5" points="534.79,380.98 534.79,382.48 533.29,382.48 		"/>
		<line class="st6" x1="530.29" y1="382.48" x2="99.36" y2="382.48"/>
		<polyline class="st5" points="97.86,382.48 96.36,382.48 96.36,380.98 		"/>
		<line class="st7" x1="96.36" y1="378.15" x2="96.36" y2="351.29"/>
		<polyline class="st5" points="96.36,349.88 96.36,348.38 97.86,348.38 		"/>
		<line class="st6" x1="100.86" y1="348.38" x2="531.79" y2="348.38"/>
		<polyline class="st5" points="533.29,348.38 534.79,348.38 534.79,349.88 		"/>
		<line class="st7" x1="534.79" y1="352.7" x2="534.79" y2="379.57"/>
	</g>
</g>
<polyline class="st0" points="315.58,382.48 315.58,404.31 315.58,418.63 "/>
<rect x="256.57" y="418.63" class="st2" width="118.01" height="87.99"/>
<rect x="256.57" y="572.11" class="st2" width="118.01" height="87.99"/>
<g>
	<rect x="96.36" y="522.32" class="st3" width="438.44" height="34.11"/>
	<g>
		<polyline class="st5" points="534.79,554.92 534.79,556.42 533.29,556.42 		"/>
		<line class="st6" x1="530.29" y1="556.42" x2="99.36" y2="556.42"/>
		<polyline class="st5" points="97.86,556.42 96.36,556.42 96.36,554.92 		"/>
		<line class="st7" x1="96.36" y1="552.1" x2="96.36" y2="525.23"/>
		<polyline class="st5" points="96.36,523.82 96.36,522.32 97.86,522.32 		"/>
		<line class="st6" x1="100.86" y1="522.32" x2="531.79" y2="522.32"/>
		<polyline class="st5" points="533.29,522.32 534.79,522.32 534.79,523.82 		"/>
		<line class="st7" x1="534.79" y1="526.65" x2="534.79" y2="553.51"/>
	</g>
</g>
<rect x="406.47" y="572.11" class="st2" width="125.68" height="87.99"/>
<line class="st0" x1="374.58" y1="616.11" x2="406.47" y2="616.11"/>
<g>
	<rect x="93.71" y="675.8" class="st3" width="438.44" height="34.11"/>
	<g>
		<polyline class="st5" points="532.15,708.4 532.15,709.9 530.65,709.9 		"/>
		<line class="st6" x1="527.65" y1="709.9" x2="96.72" y2="709.9"/>
		<polyline class="st5" points="95.21,709.9 93.71,709.9 93.71,708.4 		"/>
		<line class="st7" x1="93.71" y1="705.57" x2="93.71" y2="678.71"/>
		<polyline class="st5" points="93.71,677.3 93.71,675.8 95.21,675.8 		"/>
		<line class="st6" x1="98.22" y1="675.8" x2="529.15" y2="675.8"/>
		<polyline class="st5" points="530.65,675.8 532.15,675.8 532.15,677.3 		"/>
		<line class="st7" x1="532.15" y1="680.12" x2="532.15" y2="706.99"/>
	</g>
</g>
<text transform="matrix(1 0 0 1 265.8906 369.4634)" class="st8 st9 st10">Pre-Processing</text>
<text transform="matrix(1 0 0 1 280.5303 544.6914)" class="st8 st9 st10">Simulaton</text>
<text transform="matrix(1 0 0 1 262.1143 697.8477)" class="st8 st9 st10">Post Processing</text>
<text transform="matrix(1 0 0 1 119.209 97.8452)" class="st9 st10">Rhino</text>
<text transform="matrix(1 0 0 1 234.083 99.7817)" class="st9 st10">Grasshopper</text>
<text transform="matrix(1 0 0 1 111.3652 76.5142)" class="st9 st10">Toolkit</text>
<text transform="matrix(1 0 0 1 226.21 76.5142)" class="st9 st10">Inputs</text>
<rect x="441.5" y="81.92" class="st2" width="84.84" height="231.75"/>
<text transform="matrix(1 0 0 1 440.1465 76.5142)" class="st9 st10">OpenFOAM</text>
<text transform="matrix(1 0 0 1 458.0898 194.188)" class="st9 st10">Meshing</text>
<text transform="matrix(1 0 0 1 279.3027 457.9795)"><tspan x="0" y="0" class="st9 st10">Numerical </tspan><tspan x="0" y="19.34" class="st9 st10">Simulaton</tspan></text>
<text transform="matrix(1 0 0 1 274.4668 611.5908)"><tspan x="0" y="0" class="st9 st10">Temperature </tspan><tspan x="0" y="19.34" class="st9 st10">Distributon</tspan></text>
<text transform="matrix(1 0 0 1 449.7949 610.7373)"><tspan x="0" y="0" class="st9 st10">Visual</tspan><tspan x="-30.85" y="19.34" class="st9 st10">Representaton</tspan></text>
<text transform="matrix(1 0 0 1 130.3438 135.2954)" class="st9 st11">Geometry</text>
<text transform="matrix(1 0 0 1 266.7266 139.7642)" class="st9 st11">Materials</text>
<text transform="matrix(1 0 0 1 263.4668 280.0327)"><tspan x="0" y="0" class="st9 st11">Boundary</tspan><tspan x="0" y="17.19" class="st9 st11">Conditons</tspan></text>
<text transform="matrix(1 0 0 1 253.2896 206.5034)"><tspan x="0" y="0" class="st9 st11">Constructon</tspan><tspan x="9.84" y="17.19" class="st9 st11">Materials</tspan></text>
</svg>
